<svg xmlns="http://www.w3.org/2000/svg" viewBox="0 0 200 240" fill="none" stroke="#384527" stroke-width="5" stroke-linecap="round" stroke-linejoin="round">
  <!-- Water droplet outline -->
  <path d="M100 18 C 100 18, 36 96, 36 154 A 64 64 0 0 0 164 154 C 164 96, 100 18, 100 18 Z"/>

  <!-- Central stem -->
  <path d="M100 190 Q 98 140 100 60" stroke-width="3.5"/>

  <!-- Leaf pairs (filled) -->
  <g fill="#384527" stroke="#384527" stroke-width="2">
    <!-- bottom pair -->
    <path d="M100 170 Q 78 170 62 158 Q 80 162 100 165 Z"/>
    <path d="M100 170 Q 122 170 138 158 Q 120 162 100 165 Z"/>

    <!-- pair 2 -->
    <path d="M100 150 Q 74 146 56 130 Q 78 136 100 145 Z"/>
    <path d="M100 150 Q 126 146 144 130 Q 122 136 100 145 Z"/>

    <!-- pair 3 -->
    <path d="M100 128 Q 74 120 58 102 Q 80 112 100 123 Z"/>
    <path d="M100 128 Q 126 120 142 102 Q 120 112 100 123 Z"/>

    <!-- pair 4 -->
    <path d="M100 106 Q 78 96 68 78 Q 86 90 100 101 Z"/>
    <path d="M100 106 Q 122 96 132 78 Q 114 90 100 101 Z"/>

    <!-- top bud -->
    <path d="M100 80 Q 90 66 95 50 Q 100 60 100 78 Z"/>
    <path d="M100 80 Q 110 66 105 50 Q 100 60 100 78 Z"/>
  </g>
</svg>
